<svg id="Layer_1" data-name="Layer 1" xmlns="http://www.w3.org/2000/svg" viewBox="0 0 520 58"><defs><style>.cls-1,.cls-2,.cls-4{fill:none;stroke:#000;stroke-miterlimit:10;}.cls-2{stroke-width:0.25px;}.cls-3{font-size:12px;font-family:Palatino-Roman, Palatino;}.cls-4{stroke-width:0.5px;}</style></defs><line class="cls-1" x1="7" y1="33.19" x2="510.5" y2="33.19"/><line class="cls-1" x1="223.18" y1="24.19" x2="223.18" y2="42.19"/><line class="cls-1" x1="78.18" y1="24.19" x2="78.18" y2="42.19"/><line class="cls-1" x1="7.18" y1="24.19" x2="7.18" y2="42.19"/><line class="cls-1" x1="510.5" y1="24" x2="510.5" y2="42"/><line class="cls-2" x1="475" y1="28" x2="475" y2="38"/><line class="cls-2" x1="403" y1="28" x2="403" y2="38"/><line class="cls-2" x1="367" y1="28" x2="367" y2="38"/><line class="cls-2" x1="331" y1="28" x2="331" y2="38"/><line class="cls-2" x1="295" y1="28" x2="295" y2="38"/><line class="cls-2" x1="259" y1="28" x2="259" y2="38"/><line class="cls-2" x1="439" y1="28" x2="439" y2="38"/><line class="cls-2" x1="15.68" y1="28.19" x2="15.68" y2="38.19"/><line class="cls-2" x1="60.68" y1="28.19" x2="60.68" y2="38.19"/><line class="cls-2" x1="51.68" y1="28.19" x2="51.68" y2="38.19"/><line class="cls-2" x1="42.68" y1="28.19" x2="42.68" y2="38.19"/><line class="cls-2" x1="33.68" y1="28.19" x2="33.68" y2="38.19"/><line class="cls-2" x1="24.68" y1="28.19" x2="24.68" y2="38.19"/><line class="cls-2" x1="69.68" y1="28.19" x2="69.68" y2="38.19"/><line class="cls-2" x1="96.68" y1="28.19" x2="96.68" y2="38.19"/><line class="cls-2" x1="186.68" y1="28.44" x2="186.68" y2="38.44"/><line class="cls-2" x1="168.68" y1="28.44" x2="168.68" y2="38.44"/><line class="cls-2" x1="150.68" y1="28.44" x2="150.68" y2="38.44"/><line class="cls-2" x1="132.68" y1="28.44" x2="132.68" y2="38.44"/><line class="cls-2" x1="114.68" y1="28.44" x2="114.68" y2="38.44"/><line class="cls-2" x1="204.68" y1="28.19" x2="204.68" y2="38.19"/><text class="cls-3" transform="translate(3.97 54.07)">1</text><text class="cls-3" transform="translate(75.29 54.42)">2</text><text class="cls-3" transform="translate(220.29 54.42)">4</text><text class="cls-3" transform="translate(507.04 54.4)">8</text><text class="cls-3" transform="translate(40.5 13.04)">1</text><text class="cls-3" transform="translate(40.5 24.67)">7</text><line class="cls-4" x1="40" y1="14.5" x2="47" y2="14.5"/><text class="cls-3" transform="translate(148.31 13.04)">2</text><text class="cls-3" transform="translate(148.31 24.67)">7</text><line class="cls-4" x1="147.81" y1="14.5" x2="154.81" y2="14.5"/><text class="cls-3" transform="translate(364.5 13.04)">4</text><text class="cls-3" transform="translate(364.5 24.67)">7</text><line class="cls-4" x1="364" y1="14.5" x2="371" y2="14.5"/></svg>