<svg id="Layer_1" data-name="Layer 1" xmlns="http://www.w3.org/2000/svg" viewBox="0 0 525 48"><defs><style>.cls-1,.cls-2,.cls-3{fill:none;stroke-miterlimit:10;}.cls-1{stroke:#c1272d;}.cls-2,.cls-3{stroke:#000;}.cls-3{stroke-width:0.25px;}.cls-4{font-size:12px;}.cls-4,.cls-5,.cls-6{font-family:Palatino-Roman, Palatino;}.cls-5{font-size:7px;}.cls-6{font-size:10px;}</style></defs><line class="cls-1" x1="295.83" y1="18.75" x2="295.83" y2="28.75"/><line class="cls-1" x1="259.83" y1="18.75" x2="259.83" y2="28.75"/><line class="cls-1" x1="61.51" y1="18.93" x2="61.51" y2="28.93"/><line class="cls-1" x1="70.51" y1="18.93" x2="70.51" y2="28.93"/><line class="cls-1" x1="97.51" y1="18.93" x2="97.51" y2="28.93"/><line class="cls-1" x1="187.51" y1="19.19" x2="187.51" y2="29.19"/><line class="cls-1" x1="169.51" y1="19.19" x2="169.51" y2="29.19"/><line class="cls-1" x1="151.51" y1="19.19" x2="151.51" y2="29.19"/><line class="cls-1" x1="133.51" y1="19.19" x2="133.51" y2="29.19"/><line class="cls-1" x1="115.51" y1="19.19" x2="115.51" y2="29.19"/><line class="cls-1" x1="205.51" y1="18.93" x2="205.51" y2="28.93"/><line class="cls-2" x1="7.83" y1="23.93" x2="511.33" y2="23.93"/><line class="cls-1" x1="224.01" y1="14.93" x2="224.01" y2="32.93"/><line class="cls-1" x1="79.01" y1="14.93" x2="79.01" y2="32.93"/><line class="cls-2" x1="8.01" y1="14.93" x2="8.01" y2="32.93"/><line class="cls-2" x1="511.33" y1="14.75" x2="511.33" y2="32.75"/><line class="cls-3" x1="475.83" y1="18.75" x2="475.83" y2="28.75"/><line class="cls-3" x1="403.83" y1="18.75" x2="403.83" y2="28.75"/><line class="cls-3" x1="367.83" y1="18.75" x2="367.83" y2="28.75"/><line class="cls-3" x1="331.83" y1="18.75" x2="331.83" y2="28.75"/><line class="cls-3" x1="439.83" y1="18.75" x2="439.83" y2="28.75"/><line class="cls-3" x1="16.51" y1="18.93" x2="16.51" y2="28.93"/><line class="cls-3" x1="52.51" y1="18.93" x2="52.51" y2="28.93"/><line class="cls-3" x1="43.51" y1="18.93" x2="43.51" y2="28.93"/><line class="cls-3" x1="34.51" y1="18.93" x2="34.51" y2="28.93"/><line class="cls-3" x1="25.51" y1="18.93" x2="25.51" y2="28.93"/><text class="cls-4" transform="translate(4.64 44.44)">2</text><text class="cls-5" transform="translate(10.81 39.25)">x</text><text class="cls-4" transform="translate(70.64 44.44)">2</text><text class="cls-5" transform="translate(76.81 39.25)">x+1</text><text class="cls-4" transform="translate(216.6 44.44)">2</text><text class="cls-5" transform="translate(222.77 39.25)">x+2</text><text class="cls-4" transform="translate(503.22 44.44)">2</text><text class="cls-5" transform="translate(509.4 39.25)">x+3</text><text class="cls-6" transform="translate(60.37 11.58)">[</text><text class="cls-6" transform="translate(329.2 11.57)">)</text></svg>