<svg id="Layer_1" data-name="Layer 1" xmlns="http://www.w3.org/2000/svg" viewBox="0 0 314 42"><defs><style>.cls-1,.cls-2{fill:none;stroke:#000;stroke-miterlimit:10;}.cls-2{stroke-width:0.25px;}.cls-3{font-size:12px;}.cls-3,.cls-4{font-family:Palatino-Roman, Palatino;}.cls-4{font-size:7px;}</style></defs><line class="cls-1" x1="10" y1="15" x2="298" y2="15"/><line class="cls-1" x1="298.5" y1="6" x2="298.5" y2="24"/><line class="cls-1" x1="153.5" y1="6" x2="153.5" y2="24"/><line class="cls-1" x1="82.5" y1="6" x2="82.5" y2="24"/><line class="cls-1" x1="10.5" y1="6" x2="10.5" y2="24"/><line class="cls-2" x1="19" y1="10" x2="19" y2="20"/><line class="cls-2" x1="64" y1="10" x2="64" y2="20"/><line class="cls-2" x1="55" y1="10" x2="55" y2="20"/><line class="cls-2" x1="46" y1="10" x2="46" y2="20"/><line class="cls-2" x1="37" y1="10" x2="37" y2="20"/><line class="cls-2" x1="28" y1="10" x2="28" y2="20"/><line class="cls-2" x1="73" y1="10" x2="73" y2="20"/><line class="cls-2" x1="91" y1="10" x2="91" y2="20"/><line class="cls-2" x1="136" y1="10" x2="136" y2="20"/><line class="cls-2" x1="127" y1="10" x2="127" y2="20"/><line class="cls-2" x1="118" y1="10" x2="118" y2="20"/><line class="cls-2" x1="109" y1="10" x2="109" y2="20"/><line class="cls-2" x1="100" y1="10" x2="100" y2="20"/><line class="cls-2" x1="145" y1="10" x2="145" y2="20"/><line class="cls-2" x1="172" y1="10" x2="172" y2="20"/><line class="cls-2" x1="262" y1="10.25" x2="262" y2="20.25"/><line class="cls-2" x1="244" y1="10.25" x2="244" y2="20.25"/><line class="cls-2" x1="226" y1="10.25" x2="226" y2="20.25"/><line class="cls-2" x1="208" y1="10.25" x2="208" y2="20.25"/><line class="cls-2" x1="190" y1="10.25" x2="190" y2="20.25"/><line class="cls-2" x1="280" y1="10" x2="280" y2="20"/><text class="cls-3" transform="translate(7.29 35.88)">0</text><text class="cls-3" transform="translate(73.38 35.88)">2</text><text class="cls-4" transform="translate(79.55 30.69)">-126</text><text class="cls-3" transform="translate(145.53 35.88)">2</text><text class="cls-4" transform="translate(151.71 30.69)">-125</text><text class="cls-3" transform="translate(289.4 35.88)">2</text><text class="cls-4" transform="translate(295.57 30.69)">-124</text></svg>