<svg id="Layer_1" data-name="Layer 1" xmlns="http://www.w3.org/2000/svg" viewBox="0 0 582 83"><defs><style>.cls-1,.cls-2,.cls-4{fill:none;stroke:#000;stroke-miterlimit:10;}.cls-2{stroke-width:0.25px;}.cls-3{font-size:12px;font-family:Palatino-Roman, Palatino;}.cls-4{stroke-width:0.5px;}</style></defs><line class="cls-1" x1="73.31" y1="58.68" x2="576.81" y2="58.68"/><line class="cls-1" x1="289.49" y1="49.68" x2="289.49" y2="67.68"/><line class="cls-1" x1="144.49" y1="49.68" x2="144.49" y2="67.68"/><line class="cls-1" x1="73.49" y1="49.68" x2="73.49" y2="67.68"/><line class="cls-1" x1="576.81" y1="49.5" x2="576.81" y2="67.5"/><line class="cls-2" x1="541.31" y1="53.5" x2="541.31" y2="63.5"/><line class="cls-2" x1="469.31" y1="53.5" x2="469.31" y2="63.5"/><line class="cls-2" x1="433.31" y1="53.5" x2="433.31" y2="63.5"/><line class="cls-2" x1="397.31" y1="53.5" x2="397.31" y2="63.5"/><line class="cls-2" x1="361.31" y1="53.5" x2="361.31" y2="63.5"/><line class="cls-2" x1="325.31" y1="53.5" x2="325.31" y2="63.5"/><line class="cls-2" x1="505.31" y1="53.5" x2="505.31" y2="63.5"/><line class="cls-2" x1="81.99" y1="53.68" x2="81.99" y2="63.68"/><line class="cls-2" x1="126.99" y1="53.68" x2="126.99" y2="63.68"/><line class="cls-2" x1="117.99" y1="53.68" x2="117.99" y2="63.68"/><line class="cls-2" x1="108.99" y1="53.68" x2="108.99" y2="63.68"/><line class="cls-2" x1="99.99" y1="53.68" x2="99.99" y2="63.68"/><line class="cls-2" x1="90.99" y1="53.68" x2="90.99" y2="63.68"/><line class="cls-2" x1="135.99" y1="53.68" x2="135.99" y2="63.68"/><line class="cls-2" x1="162.99" y1="53.68" x2="162.99" y2="63.68"/><line class="cls-2" x1="252.99" y1="53.94" x2="252.99" y2="63.94"/><line class="cls-2" x1="234.99" y1="53.94" x2="234.99" y2="63.94"/><line class="cls-2" x1="216.99" y1="53.94" x2="216.99" y2="63.94"/><line class="cls-2" x1="198.99" y1="53.94" x2="198.99" y2="63.94"/><line class="cls-2" x1="180.99" y1="53.94" x2="180.99" y2="63.94"/><line class="cls-2" x1="270.99" y1="53.68" x2="270.99" y2="63.68"/><text class="cls-3" transform="translate(70.28 79.56)">1</text><text class="cls-3" transform="translate(141.6 79.91)">2</text><text class="cls-3" transform="translate(286.6 79.91)">4</text><text class="cls-3" transform="translate(573.35 79.9)">8</text><text class="cls-3" transform="translate(106.81 38.53)">1</text><text class="cls-3" transform="translate(106.81 50.17)">2</text><line class="cls-4" x1="106.31" y1="40" x2="113.31" y2="40"/><text class="cls-3" transform="translate(213.5 38.53)">1</text><text class="cls-3" transform="translate(213.5 50.17)">2</text><line class="cls-4" x1="213" y1="40" x2="220" y2="40"/><text class="cls-3" transform="translate(430.5 38.53)">1</text><text class="cls-3" transform="translate(430.5 50.17)">2</text><line class="cls-4" x1="430" y1="40" x2="437" y2="40"/><text class="cls-3" transform="translate(46.5 38.53)">1</text><text class="cls-3" transform="translate(46.5 50.17)">2</text><line class="cls-4" x1="46" y1="40" x2="53" y2="40"/><path class="cls-1" d="M37.5,40.5c-33,0-33.5,0-33.5-20.07C4,8.39,4.5,8,36,8c15,0,438,.84,455,.84s18.18.33,18.18,13.13c0,13.84.3,14-56.62,14"/><polygon points="445.5 36 455.43 31.89 453.09 35.97 455.47 40.02 445.5 36"/><line class="cls-1" x1="532.5" y1="46.5" x2="452.56" y2="46.5"/><polygon points="445.5 46.5 455.45 42.44 453.09 46.5 455.45 50.56 445.5 46.5"/><line class="cls-1" x1="425" y1="40" x2="232.06" y2="40"/><polygon points="225 40 234.95 35.94 232.59 40 234.95 44.06 225 40"/><line class="cls-1" x1="208" y1="40" x2="126.06" y2="40"/><polygon points="119 40 128.95 35.94 126.59 40 128.95 44.06 119 40"/><line class="cls-1" x1="99.5" y1="40" x2="67.06" y2="40"/><polygon points="60 40 69.95 35.94 67.59 40 69.95 44.06 60 40"/></svg>