<?xml version="1.0" encoding="utf-8"?>
<!-- Generator: Adobe Illustrator 26.0.1, SVG Export Plug-In . SVG Version: 6.00 Build 0)  -->
<svg version="1.1" id="Layer_1" xmlns="http://www.w3.org/2000/svg" xmlns:xlink="http://www.w3.org/1999/xlink" x="0px" y="0px"
	 viewBox="0 0 445 251" style="enable-background:new 0 0 445 251;" xml:space="preserve">
<style type="text/css">
	.st0{fill:none;stroke:#000000;stroke-width:0.75;stroke-miterlimit:10;}
	.st1{fill:#CCCCCC;fill-opacity:0.5;stroke:#000000;stroke-width:0.75;stroke-miterlimit:10;}
	.st2{fill:none;stroke:#000000;stroke-width:3;stroke-miterlimit:10;}
	.st3{font-family:'Baskerville';}
	.st4{font-size:20px;}
	.st5{fill:#F15A24;}
	.st6{fill:#3FA9F5;}
</style>
<g>
	<rect x="8.5" y="29.5" class="st0" width="431" height="215.5"/>
	<line class="st0" x1="8.5" y1="191.12" x2="439.5" y2="191.12"/>
	<line class="st0" x1="8.5" y1="137.25" x2="439.5" y2="137.25"/>
	<line class="st0" x1="8.5" y1="83.38" x2="439.5" y2="83.38"/>
	<line class="st0" x1="385.62" y1="29.5" x2="385.62" y2="245"/>
	<line class="st0" x1="331.75" y1="29.5" x2="331.75" y2="245"/>
	<line class="st0" x1="277.88" y1="29.5" x2="277.88" y2="245"/>
	<line class="st0" x1="224" y1="29.5" x2="224" y2="245"/>
	<line class="st0" x1="170.12" y1="29.5" x2="170.12" y2="245"/>
	<line class="st0" x1="116.25" y1="29.5" x2="116.25" y2="245"/>
	<line class="st0" x1="62.38" y1="29.5" x2="62.38" y2="245"/>
</g>
<circle class="st1" cx="197.5" cy="110.5" r="50"/>
<circle cx="197" cy="110" r="2"/>
<g>
	<rect x="8.5" y="29.5" class="st2" width="431" height="215.5"/>
	<line class="st2" x1="224" y1="29.5" x2="224" y2="245"/>
</g>
<text transform="matrix(1 0 0 1 78.1875 21.256)" class="st3 st4">Thread 1</text>
<text transform="matrix(1 0 0 1 295.7277 21.256)" class="st3 st4">Thread 2</text>
<circle class="st5" cx="215" cy="96" r="2"/>
<circle class="st5" cx="188" cy="68" r="2"/>
<circle class="st5" cx="184" cy="129" r="2"/>
<circle class="st5" cx="202" cy="152" r="2"/>
<circle class="st5" cx="165" cy="94" r="2"/>
<circle class="st6" cx="238" cy="92" r="2"/>
<circle class="st5" cx="71" cy="16.35" r="4"/>
<circle class="st6" cx="288" cy="16.35" r="4"/>
</svg>
